<svg xmlns="http://www.w3.org/2000/svg" xmlns:xlink="http://www.w3.org/1999/xlink" viewBox="0,0,256,256" width="48px" height="48px"><g fill="#ffffff" fill-rule="nonzero" stroke="none" stroke-width="1" stroke-linecap="butt" stroke-linejoin="miter" stroke-miterlimit="10" stroke-dasharray="" stroke-dashoffset="0" font-family="none" font-weight="none" font-size="none" text-anchor="none" style="mix-blend-mode: normal"><g transform="scale(5.33333,5.33333)"><path d="M33.5,10c-7.456,0 -13.5,6.044 -13.5,13.5c0,7.456 6.044,13.5 13.5,13.5c7.456,0 13.5,-6.044 13.5,-13.5c0,-7.456 -6.044,-13.5 -13.5,-13.5zM33.5,30c-3.59,0 -6.5,-2.91 -6.5,-6.5c0,-3.59 2.91,-6.5 6.5,-6.5c3.59,0 6.5,2.91 6.5,6.5c0,3.59 -2.91,6.5 -6.5,6.5z"></path><path d="M19.14,28.051v-0.003c-1.18,1.204 -2.822,1.952 -4.64,1.952c-3.59,0 -6.5,-2.91 -6.5,-6.5c0,-3.59 2.91,-6.5 6.5,-6.5c1.83,0 3.481,0.759 4.662,1.976l3.75,-6.024c-2.308,-1.843 -5.229,-2.952 -8.412,-2.952c-7.456,0 -13.5,6.044 -13.5,13.5c0,7.456 6.044,13.5 13.5,13.5c3.164,0 6.067,-1.097 8.369,-2.919z"></path><path d="M8,23.5c0,-1.787 0.722,-3.405 1.889,-4.58l-4.855,-5.038c-2.488,2.448 -4.034,5.851 -4.034,9.618c0,3.749 1.53,7.14 3.998,9.586l4.934,-4.964c-1.192,-1.178 -1.932,-2.813 -1.932,-4.622z"></path><path d="M38.13,18.941c1.155,1.173 1.87,2.782 1.87,4.559c0,3.59 -2.91,6.5 -6.5,6.5c-1.826,0 -3.474,-0.755 -4.655,-1.968l-4.999,4.895c2.452,2.51 5.868,4.073 9.654,4.073c7.456,0 13.5,-6.044 13.5,-13.5c0,-3.684 -1.479,-7.019 -3.871,-9.455z"></path></g></g></svg>