<svg width="573" height="224" viewBox="0 0 573 224" fill="none" xmlns="http://www.w3.org/2000/svg">
<path d="M286.09 100.018C290.11 100.018 293.801 99.9316 297.483 100.059C299.049 100.112 299.399 99.648 299.411 98.1272C299.456 90.733 299.062 83.3346 299.629 75.9486C300.286 67.3748 303.591 60.1531 310.624 54.9127C317.455 49.8242 325.268 48.809 333.48 49.5324C337.771 49.9105 341.816 51.1354 345.708 52.9439C346.666 53.3878 346.851 53.7947 346.386 54.8017C344.134 59.6928 341.931 64.6086 339.814 69.5573C339.3 70.7574 338.844 70.8725 337.73 70.2889C333.978 68.3201 330.04 68.0612 326.148 69.7217C322.703 71.189 320.862 74.1483 320.451 77.7201C319.637 84.8102 320.241 91.9496 320.098 99.0684C320.069 100.486 321.199 100.018 321.894 100.018C328.811 100.022 335.729 99.9768 342.646 99.9562C346.481 99.9439 350.32 100.055 354.151 99.9069C355.914 99.837 356.867 100.474 357.566 102.007C362.535 112.928 367.542 123.836 372.552 134.741C376.337 142.978 380.139 151.206 384.212 160.043C385.433 155.242 387.32 151.293 388.771 147.174C390.702 141.687 392.79 136.257 394.661 130.75C397.92 121.157 401.804 111.785 404.821 102.106C405.24 100.766 405.935 99.9316 407.686 99.9727C413.641 100.112 419.601 100.022 425.561 100.018C428.052 100.018 428.076 100.026 427.172 102.311C423.884 110.622 420.584 118.925 417.283 127.227C415.109 132.698 412.791 138.115 410.764 143.643C407.883 151.506 404.369 159.114 401.631 167.039C399.897 172.053 397.529 176.846 395.561 181.782C392.474 189.534 389.695 197.413 386.14 204.963C383.46 210.648 379.654 215.527 374.397 219.024C370.982 221.297 367.106 222.555 363.008 223.332C356.255 224.61 349.917 223.352 343.838 220.631C341.36 219.522 339.255 217.59 336.921 216.131C335.433 215.202 335.774 214.117 336.522 213.048C338.581 210.105 340.414 207.064 342.017 203.829C342.712 202.423 343.937 201.133 344.689 199.62C345.153 198.691 345.622 199.184 346.197 199.698C348.898 202.095 351.931 203.899 355.61 204.269C361.323 204.84 365.334 202.345 367.887 197.302C369.745 193.632 371.097 189.756 372.605 185.941C373.793 182.941 371.935 180.598 370.71 178.218C370.073 176.981 369.49 175.724 368.853 174.495C365.215 167.429 362.174 160.088 358.696 152.953C355.725 146.849 352.745 140.738 349.868 134.597C347.619 129.792 344.981 125.172 342.967 120.261C342.478 119.065 341.767 118.711 340.509 118.723C334.413 118.789 328.318 118.818 322.223 118.723C320.55 118.699 320.048 119.081 320.056 120.844C320.126 140.433 320.061 160.023 320.151 179.608C320.159 181.597 319.539 181.922 317.767 181.889C312.222 181.782 306.67 181.794 301.125 181.889C299.658 181.913 299.333 181.482 299.337 180.064C299.386 160.339 299.337 140.614 299.427 120.889C299.436 118.974 298.881 118.629 297.154 118.723C294.22 118.888 291.269 118.785 288.326 118.847C287.134 118.871 286.653 118.497 286.673 117.199C286.747 112.406 286.706 107.609 286.702 102.817C286.702 101.958 286.821 101.078 286.09 100.026V100.018Z" fill="#262122"/>
<path d="M205.016 108.373C205.016 92.9881 205.008 78.0764 205.025 63.1646C205.025 60.1354 204.548 60.4642 207.754 60.456C213.163 60.4395 218.572 60.493 223.977 60.419C225.345 60.3984 225.847 60.682 225.843 62.1864C225.802 101.484 225.802 140.781 225.839 180.075C225.839 181.522 225.44 181.908 224.01 181.883C218.74 181.797 213.467 181.809 208.198 181.871C206.969 181.883 206.517 181.587 206.566 180.284C206.665 177.498 206.595 174.707 206.595 171.304C204.421 174.641 201.856 176.811 199.127 178.85C195.707 181.398 191.839 182.759 187.725 183.433C179.184 184.839 171.144 183.277 163.524 179.204C157.848 176.17 153.08 172.097 149.591 166.717C146.265 161.587 144.12 155.944 142.759 149.931C141.625 144.929 141.872 139.902 142.188 134.966C142.463 130.666 143.935 126.437 145.706 122.372C147.433 118.418 149.804 114.854 152.262 111.414C153.73 109.363 155.957 107.645 158.058 106.116C162.513 102.865 167.4 100.333 172.846 99.063C180.816 97.2052 188.51 97.6614 196.011 101.258C199.476 102.918 202.078 105.504 205.016 108.368V108.373ZM205.037 140.966H205.016C205.016 137.271 204.992 133.576 205.037 129.881C205.049 129.014 204.836 128.286 204.375 127.571C197.659 117.123 182.982 114.02 172.714 121.007C165.678 125.796 163.162 132.939 163.117 141.061C163.084 147.469 164.827 153.396 169.418 158.139C179.209 168.25 197.129 166.191 204.494 154.185C204.959 153.429 205.045 152.672 205.041 151.846C205.033 148.221 205.041 144.592 205.041 140.966H205.037Z" fill="#262122"/>
<path d="M70.4365 148.435C71.8545 153.721 74.9289 157.519 79.109 160.478C84.8304 164.527 91.2464 165.563 98.0775 164.63C103.45 163.894 108.386 162.057 112.899 159.019C113.902 158.345 114.362 156.475 115.817 157.017C116.989 157.453 117.379 159.015 118.102 160.084C120.515 163.647 122.833 167.281 125.32 170.791C126.162 171.979 125.965 172.772 124.929 173.446C120.803 176.13 116.693 178.912 112.028 180.544C101.078 184.379 90.0133 185.246 78.7432 181.658C67.3908 178.045 59.5404 170.556 53.8272 160.359C52.2612 157.564 51.4885 154.613 50.6089 151.613C49.0676 146.343 49.4416 141.021 49.5485 135.657C49.6595 130.112 51.7844 125.151 53.9587 120.334C56.1289 115.533 59.6185 111.472 63.6095 107.901C67.0456 104.822 70.9256 102.327 75.1139 100.72C80.5887 98.6198 86.4334 97.6827 92.3973 97.991C99.6435 98.365 106.516 100.247 112.525 104.222C123.713 111.624 130.084 122.101 131.374 135.603C131.719 139.233 131.629 142.833 131.699 146.45C131.732 148.115 131.165 148.481 129.574 148.476C110.741 148.419 91.9123 148.439 73.0794 148.439C72.2696 148.439 71.464 148.439 70.4447 148.439L70.4365 148.435ZM90.6258 133.335C96.8568 133.335 103.088 133.277 109.315 133.376C110.844 133.4 111.037 132.854 110.762 131.6C110.309 129.508 109.594 127.523 108.386 125.751C103.667 118.821 96.8116 116.458 88.8091 116.873C79.6927 117.35 72.7259 122.973 70.7982 131.057C70.3995 132.726 70.4283 133.454 72.5532 133.396C78.5747 133.236 84.6002 133.339 90.6258 133.335Z" fill="#262122"/>
<path d="M531.629 136.114C532.327 133.286 532.463 130.516 531.748 127.672C531.296 125.872 531.468 124.01 530.992 122.119C529.808 117.45 527.292 113.874 523.408 111.346C520.017 109.135 516.096 108.296 512.068 107.668C508.361 107.092 504.748 107.105 501.127 107.758C496.602 108.576 492.154 109.558 487.925 111.65C485.989 112.608 483.897 113.484 481.862 114.359C481.16 114.663 480.999 114.536 480.749 113.94C479.951 112.066 479.084 110.245 477.871 108.576C477.07 107.479 477.086 106.558 478.615 105.687C482.195 103.648 485.981 102.156 489.873 100.902C497.863 98.3252 506.026 97.3757 514.399 98.3539C520.712 99.0896 526.618 101.091 531.477 105.132C538.09 110.631 541.403 118.066 541.493 126.611C541.682 144.622 541.542 162.637 541.592 180.648C541.592 181.947 541.226 182.296 539.972 182.218C537.798 182.087 534.954 182.938 533.61 181.857C532.196 180.722 533.252 177.763 533.178 175.601C533.1 173.311 533.162 171.018 533.162 168.215C530.313 171.544 527.642 174.306 524.576 176.698C520.77 179.662 516.499 181.577 511.961 183.007C506.248 184.808 500.502 184.627 494.678 183.488C485.858 181.762 479.322 176.719 475.118 169.107C471.945 163.357 471.497 156.826 472.993 150.319C474.275 144.733 477.267 140.237 481.735 136.653C489.179 130.681 497.736 128.749 507.103 129.102C514.399 129.382 521.263 131.059 527.839 134.125C529.117 134.721 530.17 135.748 531.633 136.114H531.629ZM532.2 151.889H532.192C532.192 150.109 532.081 148.322 532.225 146.554C532.344 145.083 531.711 144.363 530.49 143.726C522.422 139.509 513.819 137.734 504.764 138.013C499.684 138.173 494.916 139.485 490.539 142.127C479.61 148.72 478.952 163.303 489.294 170.78C493.597 173.891 498.558 175.079 503.79 175.141C514.029 175.26 521.957 170.517 528.719 163.25C531.152 160.636 532.895 157.902 532.225 154.142C532.093 153.414 532.204 152.641 532.204 151.889H532.2Z" fill="#262122"/>
<path d="M246.784 141.049C246.784 128.036 246.813 115.023 246.743 102.01C246.735 100.465 247.109 100.066 248.654 100.091C254.339 100.19 260.023 100.177 265.708 100.099C267.146 100.079 267.541 100.502 267.537 101.936C267.495 128.032 267.491 154.128 267.537 180.219C267.537 181.723 267.035 182.003 265.662 182.011C260.192 182.04 254.717 181.789 249.246 182.143C247.627 182.245 246.686 181.859 246.71 179.672C246.858 166.799 246.784 153.922 246.78 141.045L246.784 141.049Z" fill="#262122"/>
<path d="M570.178 141.081C570.178 154.164 570.149 167.242 570.219 180.325C570.227 181.866 569.853 182.339 568.304 182.236C566.191 182.092 564.058 182.162 561.937 182.212C561.053 182.232 560.655 181.965 560.758 181.052C560.795 180.715 560.762 180.37 560.762 180.025C560.762 154.139 560.782 128.249 560.72 102.363C560.716 100.591 561.082 99.9008 562.948 100.078C564.712 100.246 566.516 100.217 568.283 100.078C569.87 99.9502 570.219 100.542 570.207 102.042C570.145 112.178 570.174 122.314 570.174 132.449C570.174 135.327 570.174 138.204 570.174 141.077L570.178 141.081Z" fill="#262122"/>
<path d="M243.5 73.4518C242.859 65.2027 251.075 59.7073 257.536 59.991C264.959 60.3198 270.788 66.2426 270.78 73.793C270.767 82.1243 263.472 87.3196 257.039 87.3278C249.6 87.3361 243.036 81.0721 243.504 73.4518H243.5Z" fill="#262122"/>
<path d="M438.57 183.925C432.293 184.238 424.62 178.504 424.957 170.222C425.29 162.08 430.978 156.757 438.627 156.704C446.815 156.646 452.277 163.124 452.273 170.362C452.269 177.966 446.219 183.954 438.57 183.929V183.925Z" fill="#262122"/>
<path d="M572.706 73.5619C572.681 77.4748 569.397 80.6232 565.476 80.7259C560.712 80.8534 558.176 76.5294 558.267 73.3112C558.378 69.4311 562.052 65.8799 565.875 66.0279C569.212 66.1594 572.726 70.0353 572.702 73.5578L572.706 73.5619Z" fill="#262122"/>
<path d="M161.506 4.1159C160.228 4.53925 158.949 4.95438 157.663 5.34074C151.448 7.21499 145.369 9.52492 139.192 11.5266C125.677 15.9122 111.912 19.0729 97.6624 19.7264C77.6252 20.6471 58.5704 15.9286 39.7991 9.59479C31.6404 6.84096 23.5762 3.78709 15.2818 1.44428C12.191 0.57292 9.0631 -0.171025 5.78727 0.0344849C2.40459 0.248215 0.509788 2.18 0.526229 5.5257C0.53856 7.85618 1.38937 9.95238 2.34293 11.9951C5.56532 18.9085 10.1235 24.8477 15.2161 30.3759C29.4127 41.6748 71.1475 60.479 161.51 4.11179L161.506 4.1159Z" fill="url(#paint0_linear_456_145)"/>
<path d="M178.366 0.0874178C176.771 0.0627566 175.242 0.35047 173.693 0.634073C169.517 1.40268 165.522 2.78781 161.51 4.11541C71.1475 60.4826 29.4085 41.6784 15.2119 30.3795C16.3751 31.6414 17.5629 32.8826 18.7713 34.1116C29.2564 44.757 40.991 53.7295 54.3122 60.5607C66.7825 66.9561 79.8693 70.9841 94.1564 70.7909C98.1474 70.5813 102.229 70.2114 106.261 69.3811C119.529 66.652 131.522 60.9922 142.722 53.5281C156.849 44.1117 169.262 32.895 178.835 18.7477C181.218 15.2211 183.294 11.5138 184.186 7.28847C185.148 2.72616 183.01 0.157291 178.362 0.091528L178.366 0.0874178Z" fill="url(#paint1_linear_456_145)"/>
<defs>
<linearGradient id="paint0_linear_456_145" x1="0.526229" y1="21.3499" x2="161.506" y2="21.3499" gradientUnits="userSpaceOnUse">
<stop stop-color="#D71006"/>
<stop offset="1" stop-color="#CE0625"/>
</linearGradient>
<linearGradient id="paint1_linear_456_145" x1="15.2119" y1="35.4392" x2="184.416" y2="35.4392" gradientUnits="userSpaceOnUse">
<stop stop-color="#EF523E"/>
<stop offset="0.17" stop-color="#EE4C48"/>
<stop offset="0.46" stop-color="#EE3F62"/>
<stop offset="0.48" stop-color="#EE3E65"/>
<stop offset="1" stop-color="#ED257B"/>
</linearGradient>
</defs>
</svg>
