<svg id="svg2" xmlns="http://www.w3.org/2000/svg" xmlns:xlink="http://www.w3.org/1999/xlink" viewBox="0 0 722.8 702">
	<style type="text/css">
		.st0{fill:#326CE5;}
		.st1{fill:#FFFFFF;stroke:#FFFFFF;stroke-width:0.25;}
	</style>
	<g id="layer1" transform="translate(-6.3260942,-174.7524)">
		<g id="g3052">
			<path id="path3055" class="st0" d="
            M365.3,184.8c-6.2,0.3-12.3,1.9-17.9,4.5L103.1,306.1c-12.8,6.1-22.1,17.7-25.3,31.4L17.5,599.8c-2.8,12.2-0.5,25,6.3,35.5
            c0.8,1.3,1.7,2.5,2.7,3.7l169.1,210.3c8.9,11,22.3,17.4,36.5,17.4l271.2-0.1c14.2,0,27.7-6.4,36.5-17.4L709,638.9
            c8.9-11,12.2-25.5,9-39.2l-60.4-262.2c-3.2-13.7-12.5-25.3-25.3-31.4L388,189.3C380.9,186,373.1,184.4,365.3,184.8z"/>
			<path id="path3059" class="st1" d="
            M367.7,274.1c-8.1,0-14.6,7.3-14.6,16.2c0,0.1,0,0.3,0,0.4c0,1.2-0.1,2.7,0,3.8c0.2,5.2,1.3,9.1,2,13.9
            c1.2,10.2,2.3,18.7,1.6,26.5c-0.6,3-2.8,5.7-4.8,7.6l-0.3,6.2c-8.8,0.7-17.6,2.1-26.4,4.1c-38,8.6-70.7,28.2-95.6,54.6
            c-1.6-1.1-4.4-3.1-5.3-3.8c-2.6,0.4-5.3,1.2-8.7-0.8c-6.5-4.4-12.5-10.5-19.7-17.8c-3.3-3.5-5.7-6.8-9.6-10.2
            c-0.9-0.8-2.3-1.8-3.2-2.6c-3.1-2.4-6.7-3.7-10.2-3.8c-4.5-0.2-8.8,1.6-11.7,5.2c-5,6.3-3.4,16,3.6,21.6c0.1,0.1,0.1,0.1,0.2,0.2
            c1,0.8,2.1,1.8,3,2.4c4.2,3.1,8,4.7,12.1,7.1c8.7,5.4,16,9.9,21.8,15.3c2.2,2.4,2.6,6.6,2.9,8.4l4.7,4.2
            c-25.1,37.8-36.7,84.4-29.8,131.9l-6.1,1.8c-1.6,2.1-3.9,5.4-6.3,6.3c-7.5,2.4-16,3.2-26.2,4.3c-4.8,0.4-8.9,0.2-14,1.1
            c-1.1,0.2-2.7,0.6-3.9,0.9c0,0-0.1,0-0.1,0c-0.1,0-0.2,0-0.2,0.1c-8.6,2.1-14.2,10-12.4,17.8c1.8,7.8,10.2,12.6,18.9,10.7
            c0.1,0,0.2,0,0.2,0c0.1,0,0.2-0.1,0.3-0.1c1.2-0.3,2.7-0.6,3.8-0.8c5-1.3,8.6-3.3,13.1-5c9.7-3.5,17.7-6.4,25.5-7.5
            c3.3-0.3,6.7,2,8.4,3l6.4-1.1c14.7,45.5,45.4,82.2,84.3,105.3l-2.7,6.4c1,2.5,2,5.8,1.3,8.3c-2.8,7.4-7.7,15.1-13.2,23.8
            c-2.7,4-5.4,7.1-7.8,11.7c-0.6,1.1-1.3,2.8-1.9,3.9c-3.8,8-1,17.3,6.2,20.8c7.3,3.5,16.3-0.2,20.2-8.2c0,0,0,0,0,0c0,0,0,0,0,0
            c0.6-1.1,1.3-2.6,1.8-3.7c2.1-4.7,2.8-8.8,4.2-13.4c3.9-9.7,6-19.9,11.3-26.3c1.5-1.7,3.8-2.4,6.3-3.1l3.3-6
            c33.9,13,71.9,16.5,109.9,7.9c8.7-2,17-4.5,25.1-7.6c0.9,1.7,2.7,4.8,3.1,5.6c2.5,0.8,5.2,1.2,7.5,4.5c4,6.8,6.7,14.9,10,24.6
            c1.5,4.6,2.2,8.7,4.2,13.4c0.5,1.1,1.3,2.6,1.8,3.8c3.9,8.1,12.9,11.8,20.2,8.3c7.2-3.5,10-12.7,6.2-20.8
            c-0.6-1.2-1.3-2.8-1.9-3.9c-2.4-4.6-5.2-7.7-7.8-11.7c-5.5-8.7-10.1-15.9-13-23.2c-1.2-3.8,0.2-6.2,1.1-8.6
            c-0.6-0.6-1.7-4.2-2.4-5.9c40.5-23.9,70.3-62,84.3-106.1c1.9,0.3,5.2,0.9,6.2,1.1c2.2-1.5,4.2-3.3,8.2-3c7.8,1.1,15.8,4,25.5,7.5
            c4.5,1.7,8.1,3.7,13.1,5.1c1.1,0.3,2.6,0.5,3.8,0.8c0.1,0,0.2,0.1,0.3,0.1c0.1,0,0.2,0,0.2,0c8.7,1.9,17.1-2.9,18.9-10.7
            c1.8-7.8-3.8-15.7-12.4-17.8c-1.3-0.3-3-0.8-4.2-1c-5.1-1-9.2-0.7-14-1.1c-10.2-1.1-18.7-1.9-26.2-4.3c-3.1-1.2-5.3-4.8-6.3-6.3
            l-5.9-1.7c3.1-22.2,2.2-45.2-3.1-68.3c-5.3-23.3-14.8-44.6-27.4-63.3c1.5-1.4,4.4-3.9,5.2-4.7c0.2-2.6,0-5.4,2.8-8.3
            c5.8-5.4,13-9.9,21.8-15.3c4.2-2.4,8-4,12.2-7.1c0.9-0.7,2.2-1.8,3.2-2.6c7-5.6,8.6-15.2,3.6-21.6s-14.8-6.9-21.8-1.3
            c-1,0.8-2.4,1.8-3.2,2.6c-3.9,3.4-6.4,6.7-9.7,10.2c-7.2,7.3-13.2,13.4-19.7,17.8c-2.8,1.7-7,1.1-8.9,1l-5.6,4
            c-31.7-33.3-74.9-54.5-121.4-58.7c-0.1-1.9-0.3-5.5-0.3-6.5c-1.9-1.8-4.2-3.4-4.8-7.3c-0.6-7.9,0.4-16.3,1.7-26.5
            c0.7-4.8,1.8-8.7,2-13.9c0-1.2,0-2.9,0-4.2C382.4,281.3,375.8,274.1,367.7,274.1L367.7,274.1z M349.4,387.5l-4.3,76.7l-0.3,0.2
            c-0.3,6.9-5.9,12.3-12.9,12.3c-2.8,0-5.5-0.9-7.6-2.5l-0.1,0.1l-62.9-44.6c19.3-19,44.1-33.1,72.6-39.5
            C339,389,344.2,388.1,349.4,387.5z M386.1,387.5c33.3,4.1,64,19.2,87.6,42.2l-62.5,44.3L411,474c-5.5,4.1-13.4,3-17.7-2.4
            c-1.8-2.2-2.7-4.8-2.8-7.5l-0.1,0L386.1,387.5z M238.5,458.4l57.4,51.4l-0.1,0.3c5.2,4.5,5.9,12.3,1.6,17.7
            c-1.8,2.2-4.1,3.7-6.7,4.4l-0.1,0.2l-73.6,21.2C213.3,519.5,221.4,486.1,238.5,458.4z M496.6,458.4c8.5,13.8,15,29.3,18.8,46
            c3.8,16.5,4.8,33.1,3.2,49l-74-21.3l-0.1-0.3c-6.6-1.8-10.7-8.6-9.2-15.3c0.6-2.8,2.1-5.1,4.1-6.8l0-0.2L496.6,458.4L496.6,458.4z
             M356,513.7h23.5l14.6,18.3l-5.2,22.8L367.7,565l-21.2-10.2l-5.2-22.8L356,513.7z M431.4,576.3c1-0.1,2,0,3,0.2l0.1-0.2l76.2,12.9
            c-11.1,31.3-32.5,58.4-61,76.6l-29.6-71.4l0.1-0.1c-2.7-6.3,0-13.7,6.2-16.7C428.1,576.8,429.7,576.4,431.4,576.3L431.4,576.3z
             M303.5,576.6c5.8,0.1,11,4.1,12.4,10c0.6,2.8,0.3,5.5-0.7,7.9l0.2,0.3l-29.2,70.7c-27.3-17.5-49.1-43.8-60.8-76.1l75.5-12.8
            l0.1,0.2C301.8,576.7,302.7,576.6,303.5,576.6L303.5,576.6z M367.3,607.6c2-0.1,4.1,0.3,6,1.3c2.6,1.2,4.5,3.2,5.8,5.5h0.3
            l37.2,67.2c-4.8,1.6-9.8,3-14.9,4.2c-28.5,6.5-56.8,4.5-82.5-4.2l37.1-67.1h0.1C358.6,610.2,362.8,607.7,367.3,607.6z"/>
		</g>
	</g>
</svg>
