<?xml version="1.0" encoding="UTF-8"?>
<svg xmlns="http://www.w3.org/2000/svg" version="1.1" viewBox="0 0 800 800">
  <defs>
    <style>
      .cls-1 {
        fill: #020202;
      }

      .cls-2 {
        fill: #fff;
      }

      .cls-3 {
        fill: #fffc00;
      }
    </style>
  </defs>
  <!-- Generator: Adobe Illustrator 28.6.0, SVG Export Plug-In . SVG Version: 1.2.0 Build 709)  -->
  <g>
    <g id="Layer_1">
      <rect class="cls-3" x=".3" y="0" width="800" height="800"/>
      <path class="cls-2" d="M403.6,675c-1.7,0-3.2,0-4.4-.1-1,0-1.9.1-2.9.1-34.9,0-58.2-16.5-78.8-31-14.8-10.4-28.7-20.3-45-23-8-1.3-16-2-23.7-2-13.9,0-24.8,2.1-32.8,3.7-4.9,1-9.2,1.8-12.4,1.8s-7.6-.8-9.3-6.7c-1.4-4.7-2.4-9.2-3.3-13.6-2.4-10.9-4.1-17.6-8.2-18.2-43.7-6.7-69.6-16.7-74.7-28.7-.5-1.3-.8-2.5-.9-3.8-.2-3.6,2.3-6.7,5.9-7.3,34.7-5.7,65.6-24.1,91.8-54.6,20.3-23.6,30.2-46.2,31.3-48.7,0-.1.1-.2.2-.3,5-10.2,6.1-19.1,3-26.3-5.6-13.3-24.3-19.2-36.7-23.1-3.1-1-6-1.9-8.3-2.8-10.9-4.3-29-13.5-26.6-26.1,1.7-9.2,13.9-15.6,23.7-15.6s5.1.5,7.2,1.4c11.1,5.2,21.1,7.8,29.7,7.8s15.9-4.1,17.1-5.2c-.3-5.7-.7-11.7-1-17.4,0,0,0,0,0,0-2.5-39.9-5.6-89.6,7.1-118.1,38-85.3,118.7-91.9,142.5-91.9s10.4,0,10.4,0c.4,0,.9,0,1.4,0,23.9,0,104.7,6.6,142.7,91.9,12.7,28.5,9.6,78.2,7.1,118.2v1.9c-.5,5.4-.8,10.6-1.1,15.5,1.2,1.1,5.9,4.8,15.5,5.2,8.2-.3,17.6-2.9,28-7.8,3.2-1.5,6.8-1.8,9.2-1.8,3.6,0,7.3.7,10.4,2h.2c8.8,3.2,14.6,9.4,14.7,16,.1,6.1-4.4,15.2-26.8,24.1-2.3.9-5.2,1.8-8.3,2.8-12.4,3.9-31,9.8-36.7,23.1-3.1,7.2-2.1,16.1,3,26.3,0,.1.1.2.2.3,1.6,3.6,39.2,89.4,123.1,103.3,3.5.6,6.1,3.7,5.9,7.3,0,1.3-.4,2.6-.9,3.8-5.1,12-31,21.9-74.7,28.7-4.1.6-5.8,7.3-8.2,18.1-1,4.5-2,8.9-3.3,13.5-1.3,4.3-4.1,6.5-8.7,6.5h-.7c-3,0-7.2-.5-12.4-1.6-9.2-1.8-19.6-3.5-32.8-3.5s-15.7.7-23.7,2c-16.3,2.7-30.2,12.5-44.9,22.9-20.6,14.6-43.9,31.1-78.8,31.1"/>
      <path class="cls-1" d="M405.7,132.1c22.5,0,99.8,6,136.3,87.8,12,26.9,8.9,75.7,6.5,114.9-.4,6.2-.8,12.2-1.1,18v2.5c-.1,0,1.5,1.8,1.5,1.8.7.7,6.9,7.3,20.8,7.8h.2s.2,0,.2,0c9.2-.3,19.5-3.2,30.7-8.5,1.7-.8,3.9-1.2,6.2-1.2s5.5.5,7.8,1.5h.4c5.9,2.2,10,6.1,10.1,9.6,0,2-1.5,9.2-22.3,17.4-2,.8-4.7,1.7-7.8,2.6-13.6,4.3-34.1,10.8-41,27.1-3.9,9.2-2.8,20,3.2,32.1,2.5,5.7,41.2,93.1,128.5,107.4,0,.4-.1.9-.4,1.4-1.5,3.5-10.9,15.5-69.3,24.5-9.1,1.4-11.4,11.7-14,23.6-.9,4.3-1.9,8.6-3.2,13-.4,1.3-.5,1.4-1.9,1.4h-.7c-2.6,0-6.5-.5-11.1-1.4-8.3-1.6-19.7-3.6-34.2-3.6s-16.4.7-24.8,2.1c-17.9,3-32.4,13.3-47.9,24.2-20.7,14.6-42.1,29.8-74.7,29.8s-2.8,0-4.2-.1h-.4s-.4,0-.4,0c-.8,0-1.6.1-2.4.1-32.6,0-54-15.1-74.7-29.8-15.4-10.9-30-21.2-47.9-24.2-8.4-1.4-16.7-2.1-24.8-2.1-14.5,0-25.9,2.2-34.2,3.8-4.6.9-8.5,1.7-11.1,1.7s-2.2-.1-2.6-1.7c-1.3-4.5-2.3-8.9-3.2-13.1-2.6-11.9-4.8-22.2-14-23.7-58.5-9-67.9-21.1-69.4-24.6-.2-.5-.3-1-.4-1.4,87.2-14.4,126-101.7,128.4-107.4,6-12.2,7.1-23,3.2-32.1-6.9-16.3-27.4-22.8-41-27.1-3.1-1-5.8-1.8-7.8-2.7-17.6-7-23-14-22.2-18.2.9-4.9,9.4-9.9,16.8-9.9s3.1.3,4.2.8c12,5.6,23,8.5,32.7,8.5,15.2,0,21.9-7.1,22.6-7.9l1.6-1.8v-2.5c-.4-5.8-.8-11.8-1.2-18-2.5-39.2-5.5-87.9,6.5-114.8,36.3-81.5,113.3-87.7,136.1-87.7s10.4-.1,10.4-.1c.4,0,.9,0,1.3,0M405.7,118h0c-.5,0-1,0-1.5,0-3.7,0-9.8,0-10.3.1-13.3,0-40,1.9-68.6,14.5-16.4,7.2-31.1,17-43.7,29-15.1,14.3-27.4,32-36.5,52.5-13.4,30.1-10.2,80.7-7.7,121.4h0c.3,4.4.6,9,.8,13.4-2,.9-5.2,1.9-9.9,1.9-7.6,0-16.6-2.4-26.7-7.2-3-1.4-6.4-2.1-10.2-2.1-6.1,0-12.4,1.8-18,5-7,4.1-11.5,9.9-12.7,16.3-.8,4.2-.8,12.6,8.5,21.1,5.1,4.7,12.6,9,22.3,12.8,2.5,1,5.6,2,8.8,3,11.1,3.5,27.9,8.9,32.3,19.2,2.2,5.2,1.3,12.1-2.8,20.4-.1.2-.2.4-.3.7-1,2.4-10.6,24-30.2,46.9-11.1,13-23.4,23.8-36.4,32.3-15.9,10.3-33.1,17-51.2,20-7.1,1.2-12.1,7.5-11.8,14.6.1,2.1.6,4.1,1.4,6.1,0,0,0,0,0,0,2.9,6.7,9.5,12.4,20.3,17.4,13.2,6.1,32.9,11.3,58.7,15.3,1.3,2.5,2.6,8.7,3.6,12.9,1,4.5,2,9.2,3.5,14.1,1.6,5.3,5.6,11.7,16.1,11.7s8.5-.9,13.8-1.9c7.7-1.5,18.3-3.6,31.5-3.6s14.9.6,22.5,1.9c14.7,2.4,27.4,11.4,42,21.8,21.5,15.2,45.7,32.3,82.9,32.3s2,0,3-.1c1.2,0,2.7.1,4.4.1,37.1,0,61.4-17.2,82.8-32.3h0c14.7-10.4,27.3-19.3,42-21.8,7.6-1.3,15.2-1.9,22.5-1.9,12.6,0,22.6,1.6,31.5,3.3,5.8,1.1,10.3,1.7,13.8,1.7h.3s.4,0,.4,0c7.6,0,13.3-4.2,15.4-11.5,1.4-4.8,2.4-9.4,3.4-14,.9-4,2.3-10.4,3.6-12.9,25.7-4,45.5-9.2,58.7-15.3,10.8-5,17.4-10.7,20.3-17.4.9-2,1.4-4.1,1.5-6.2.4-7.2-4.7-13.5-11.8-14.6-80.2-13.2-116.3-95.6-117.8-99.1,0-.2-.2-.5-.3-.7-4.1-8.3-5-15.2-2.8-20.4,4.4-10.3,21.2-15.6,32.3-19.2,3.2-1,6.3-2,8.8-3,10.9-4.3,18.8-9,23.9-14.3,6.2-6.3,7.4-12.4,7.3-16.4-.2-9.6-7.5-18.2-19.3-22.4-4-1.6-8.5-2.5-13.1-2.5s-7.8.4-12.1,2.5c-9.4,4.4-17.8,6.8-25,7.1-3.8-.2-6.5-1-8.3-1.8.2-3.8.5-7.6.7-11.6v-1.7c2.7-40.7,5.9-91.4-7.5-121.5-9.2-20.6-21.5-38.3-36.7-52.7-12.7-12-27.5-21.8-43.9-29-28.6-12.5-55.2-14.4-68.6-14.4"/>
    </g>
  </g>
</svg>